<svg height="512pt" viewBox="0 -74 512 512" width="512pt" xmlns="http://www.w3.org/2000/svg"><g fill-rule="evenodd"><path d="m296.925781 40.214844c-.347656 2.285156-1.40625 4.492187-3.183593 6.269531l-107.996094 107.996094c-1.730469 1.730469-3.820313 2.785156-5.960938 3.164062-2.253906.398438-4.640625.09375-6.804687-.90625-7.941407-3.679687-17.367188-.226562-21.046875 7.71875-3.683594 7.945313-.226563 17.367188 7.71875 21.046875 8.023437 3.710938 17.019531 4.800782 25.65625 3.273438 8.449218-1.492188 16.488281-5.441406 22.890625-11.84375l107.996093-107.996094c6.695313-6.699219 10.710938-15.125 12.039063-23.902344 1.363281-8.984375-.105469-18.328125-4.40625-26.542968-4.070313-7.75-13.648437-10.734376-21.398437-6.664063s-10.734376 13.648437-6.664063 21.398437c1.132813 2.164063 1.519531 4.625 1.160156 6.988282zm0 0" fill="#fd4848"/><path d="m240.019531 168.363281c-6.421875-6.421875-16.832031-6.421875-23.253906 0-6.421875 6.417969-6.421875 16.832031 0 23.25 6.421875 6.421875 16.832031 6.421875 23.253906 0 6.417969-6.417969 6.417969-16.832031 0-23.25zm0 0" fill="#6a87c1"/><path d="m331.175781 77.207031c-6.421875-6.421875-16.832031-6.421875-23.253906 0s-6.421875 16.832031 0 23.253907c6.421875 6.421874 16.832031 6.421874 23.253906 0 6.421875-6.421876 6.421875-16.832032 0-23.253907zm0 0" fill="#6a87c1"/><path d="m426 154.574219c0 77-63 140-140 140h-60c-77 0-140-63-140-140v-79.996094h-76v280h492v-280h-76zm0 0" fill="#ffba4a"/></g><path d="m502 4.578125c-5.523438 0-10 4.476563-10 10v50h-66c-5.523438 0-10 4.476563-10 10v79.996094c0 71.683593-58.316406 130-130 130h-60c-71.683594 0-130-58.316407-130-130v-79.996094c0-5.523437-4.476562-10-10-10-5.519531 0-10 4.476563-10 10v79.996094c0 82.710937 67.289062 150 150 150h60c82.710938 0 150-67.289063 150-150v-69.996094h56v259.996094h-472v-260.445313c4.074219-1.261718 7.035156-5.0625 7.035156-9.550781 0-4.492187-2.960937-8.289063-7.035156-9.554687v-50.445313c0-5.523437-4.476562-10-10-10s-10 4.476563-10 10v339.996094c0 5.523437 4.476562 10 10 10h492c5.523438 0 10-4.476563 10-10v-339.996094c0-5.523437-4.476562-10-10-10zm0 0"/><path d="m155.457031 194.585938c6.992188 3.226562 14.519531 4.871093 22.164063 4.871093 3.132812 0 6.285156-.277343 9.429687-.832031 6.375-1.125 12.382813-3.355469 17.8125-6.5625 1.242188 2.414062 2.859375 4.652344 4.832031 6.625 5.15625 5.152344 11.929688 7.730469 18.699219 7.730469s13.542969-2.578125 18.695313-7.730469c4.996094-4.992188 7.746094-11.636719 7.746094-18.695312 0-7.066407-2.75-13.707032-7.746094-18.699219-1.570313-1.570313-3.292969-2.898438-5.117188-3.992188l54.882813-54.882812c1.101562 1.839843 2.441406 3.558593 4 5.113281 5.152343 5.152344 11.925781 7.730469 18.695312 7.730469s13.542969-2.578125 18.699219-7.730469c10.308594-10.3125 10.308594-27.085938 0-37.394531-2-2-4.261719-3.628907-6.707031-4.875 3.324219-5.707031 5.5625-12.023438 6.578125-18.726563 1.691406-11.148437-.238282-22.753906-5.4375-32.6875-3.210938-6.113281-8.609375-10.613281-15.199219-12.664062-6.59375-2.054688-13.59375-1.417969-19.703125 1.792968-6.113281 3.207032-10.609375 8.605469-12.664062 15.199219-2.050782 6.589844-1.414063 13.589844 1.785156 19.683594.132812.25.179687.566406.136718.851563-.039062.265624-.160156.496093-.367187.703124l-107.996094 107.996094c-.289062.289063-.519531.367188-.632812.386719-.261719.046875-.578125-.003906-.855469-.128906-12.933594-5.992188-28.332031-.347657-34.324219 12.582031-2.90625 6.269531-3.195312 13.289062-.816406 19.773438 2.375 6.480468 7.132813 11.652343 13.410156 14.5625zm77.492188-19.152344c1.21875 1.21875 1.886719 2.835937 1.886719 4.558594 0 1.71875-.667969 3.335937-1.886719 4.554687-2.511719 2.511719-6.601563 2.507813-9.109375 0-2.507813-2.507813-2.511719-6.578125-.019532-9.09375l.035157-.035156c2.515625-2.492188 6.585937-2.492188 9.09375.015625zm91.160156-82.046875c-2.515625 2.511719-6.601563 2.511719-9.113281 0-1.21875-1.214844-1.886719-2.832031-1.886719-4.554688 0-1.722656.667969-3.339843 1.886719-4.554687 1.21875-1.21875 2.835937-1.886719 4.554687-1.886719 1.722657 0 3.339844.667969 4.558594 1.886719 2.507813 2.511718 2.507813 6.597656 0 9.109375zm-163.101563 75.277343c.988282-2.132812 3.105469-3.390624 5.316407-3.390624.824219 0 1.664062.175781 2.464843.542968 4.019532 1.859375 8.421876 2.441406 12.738282 1.675782 4.253906-.753907 8.15625-2.808594 11.289062-5.941407l107.996094-107.992187c3.238281-3.242188 5.3125-7.335938 6-11.847656.675781-4.46875-.101562-9.125-2.195312-13.132813-.726563-1.382813-.867188-2.964844-.40625-4.457031.46875-1.492188 1.484374-2.714844 2.867187-3.4375 1.382813-.726563 2.964844-.875 4.457031-.40625 1.492188.464844 2.714844 1.480468 3.433594 2.855468 3.238281 6.183594 4.4375 13.429688 3.382812 20.402344-1.066406 7.023438-4.257812 13.359375-9.230468 18.328125l-107.992188 108c-4.742187 4.738281-10.8125 7.875-17.5625 9.066407-6.671875 1.179687-13.675781.292968-19.710937-2.496094-1.417969-.65625-2.496094-1.828125-3.035157-3.296875-.535156-1.46875-.472656-3.054688.1875-4.472657zm0 0"/><path d="m472 334.574219c5.519531 0 10-4.476563 10-10 0-5.519531-4.480469-10-10-10h-41.035156c-5.523438 0-10 4.480469-10 10 0 5.523437 4.476562 10 10 10zm0 0"/><path d="m402.234375 334.578125c5.519531 0 10-4.476563 10-10s-4.480469-10-10-10h-.238281c-5.519532 0-10 4.476563-10 10s4.480468 10 10 10zm0 0"/><path d="m45.765625 84.578125h.269531c5.523438 0 10-4.476563 10-10s-4.476562-10-10-10h-.269531c-5.523437 0-10 4.476563-10 10s4.476563 10 10 10zm0 0"/></svg>